<svg width="32" height="32" viewBox="0 0 32 32" fill="none" xmlns="http://www.w3.org/2000/svg">
<path fill-rule="evenodd" clip-rule="evenodd" d="M2.97404 6.70677C1.10173 9.32642 0 12.5346 0 16C0 24.8366 7.16344 32 16 32C19.4654 32 22.6736 30.8983 25.2932 29.026L22.3672 26.0999C21.8116 26.4555 21.2227 26.761 20.6005 27.0166C19.9783 27.2722 19.3339 27.4777 18.6672 27.6333V24.8999C18.9783 24.7888 19.2839 24.6777 19.5839 24.5666C19.8839 24.4555 20.1672 24.3222 20.4339 24.1666L16.0005 19.7333V26.6666L9.33386 19.9999H4.00052V11.9999H8.26719L2.97404 6.70677ZM4.68659 4.68599L27.314 27.3134C30.2093 24.418 32 20.4181 32 16C32 7.16344 24.8366 0 16 0C11.5819 0 7.582 1.79074 4.68659 4.68599ZM24.2005 20.4666L26.1339 22.3999C26.7339 21.4666 27.195 20.4555 27.5172 19.3666C27.8394 18.2777 28.0005 17.1444 28.0005 15.9666C28.0005 13.1444 27.1339 10.6499 25.4005 8.48326C23.6672 6.31659 21.4227 4.92215 18.6672 4.29993V7.03326C20.6672 7.61104 22.2783 8.72215 23.5005 10.3666C24.7227 12.011 25.3339 13.8777 25.3339 15.9666C25.3339 16.7666 25.2394 17.5444 25.0505 18.2999C24.8616 19.0555 24.5783 19.7777 24.2005 20.4666ZM18.6672 14.9333L21.6672 17.9333C21.7783 17.6222 21.8616 17.3055 21.9172 16.9833C21.9727 16.661 22.0005 16.3333 22.0005 15.9999C22.0005 14.8444 21.7061 13.7777 21.1172 12.7999C20.5283 11.8221 19.7116 11.0888 18.6672 10.5999V14.9333ZM12.5339 8.79993L16.0005 12.2666V5.33326L12.5339 8.79993Z" fill="white"/>
</svg>
