<svg width="32" height="32" viewBox="0 0 32 32" fill="none" xmlns="http://www.w3.org/2000/svg">
<path fill-rule="evenodd" clip-rule="evenodd" d="M16 0C7.16344 0 0 7.16344 0 16C0 24.8366 7.16344 32 16 32C24.8366 32 32 24.8366 32 16C32 7.16344 24.8366 0 16 0ZM18.6667 24.9V27.6333C21.4222 27.0111 23.6667 25.6167 25.4 23.45C27.1333 21.2833 28 18.7889 28 15.9667C28 13.1444 27.1333 10.65 25.4 8.48333C23.6667 6.31667 21.4222 4.92222 18.6667 4.3V7.03333C20.6667 7.61111 22.2778 8.72222 23.5 10.3667C24.7222 12.0111 25.3333 13.8778 25.3333 15.9667C25.3333 18.0556 24.7222 19.9222 23.5 21.5667C22.2778 23.2111 20.6667 24.3222 18.6667 24.9ZM4 12V20H9.33333L16 26.6667V5.33333L9.33333 12H4ZM18.6667 10.6V21.3333C19.7111 20.8444 20.5278 20.1167 21.1167 19.15C21.7056 18.1833 22 17.1333 22 16C22 14.8444 21.7056 13.7778 21.1167 12.8C20.5278 11.8222 19.7111 11.0889 18.6667 10.6Z" fill="white"/>
</svg>
