<svg width="32" height="32" viewBox="0 0 32 32" fill="none" xmlns="http://www.w3.org/2000/svg">
<g clip-path="url(#clip0_2200_6059)">
<path fill-rule="evenodd" clip-rule="evenodd" d="M26.0452 0.833374C23.9582 0.833374 22.1934 2.26966 21.6835 4.19795L21.1221 3.93708C21.0219 3.89052 20.9128 3.86639 20.8023 3.86639C20.6919 3.86639 20.5828 3.89052 20.4826 3.93708L11.1967 8.25078L1.91075 3.93738C1.79521 3.88372 1.668 3.86004 1.54089 3.86851C1.41377 3.87699 1.29084 3.91735 1.18344 3.98588C1.07604 4.05441 0.987641 4.14889 0.926393 4.26059C0.865146 4.3723 0.833029 4.49764 0.833008 4.62504V25.9454C0.832974 26.09 0.874275 26.2316 0.952041 26.3535C1.02981 26.4754 1.1408 26.5725 1.27193 26.6334L10.8773 31.0951C10.9774 31.1417 11.0865 31.1658 11.197 31.1658C11.3074 31.1658 11.4166 31.1417 11.5167 31.0951L20.8027 26.7817L30.0886 31.0951C30.5912 31.3284 31.1663 30.9617 31.1663 30.4078V9.08738C31.1664 8.94279 31.1251 8.80121 31.0473 8.67932C30.9695 8.55743 30.8585 8.46032 30.7274 8.39942L29.7476 7.94381L30.0543 7.42147C30.1241 7.29498 30.1796 7.1603 30.2272 7.02259C30.4469 6.48723 30.5598 5.91411 30.5597 5.33545C30.5597 2.86116 28.5267 0.833374 26.0452 0.833374ZM26.0452 2.94245C27.3813 2.94245 28.4439 4.0029 28.4439 5.33545C28.4439 6.66769 27.3813 7.72723 26.0452 7.72723C24.709 7.72723 23.6464 6.66769 23.6464 5.33545C23.6464 4.0029 24.709 2.94245 26.0452 2.94245ZM21.1415 5.61846L21.5592 5.81289C21.6407 6.57085 21.9148 7.29535 22.3554 7.91742L25.4943 13.3441C25.9341 13.9186 26.2266 13.8094 26.5921 13.3137L28.9754 9.25724L29.6497 9.57089V29.2193L21.254 25.3193L21.1855 13.2843C21.3092 13.311 21.4327 13.3368 21.5567 13.3662L21.8358 12.1859C21.6174 12.1343 21.3982 12.0865 21.1782 12.0424L21.1415 5.61846ZM20.2321 5.72584L20.267 11.8944C19.9537 11.8514 19.6386 11.823 19.3227 11.8092L19.2778 13.0213C19.6078 13.0334 19.9406 13.0692 20.2742 13.1178L20.344 25.3221L11.6456 29.3634L11.5337 9.76684L20.2321 5.72584ZM2.34967 5.8135L10.6231 9.65673L10.7356 29.3573L2.34967 25.4613V5.8135ZM17.9844 11.892C17.5667 11.9669 17.1393 12.1007 16.7413 12.3321C16.2653 12.6078 15.8738 13.0085 15.6093 13.4909L16.6716 14.0769C16.8298 13.7888 17.0632 13.5488 17.3468 13.3826L17.3486 13.3814L17.3504 13.3801C17.5952 13.2376 17.8867 13.1417 18.1988 13.0859L17.9844 11.892ZM23.0397 12.5081L22.6961 13.671C23.4553 13.8955 24.2073 14.1533 24.955 14.4324L25.3793 13.2955C24.6113 13.0092 23.8323 12.7422 23.0397 12.5081ZM15.1525 14.8122L15.1434 14.8601L15.1425 14.8644C14.9911 15.7231 15.0072 16.5682 15.0411 17.3714L16.2533 17.3198C16.2202 16.5406 16.2132 15.7865 16.3373 15.0788L16.3446 15.0409L15.1525 14.8122ZM16.3255 18.5159L15.1152 18.5978C15.1698 19.4074 15.228 20.2009 15.2259 20.979L16.4392 20.982C16.4416 20.1418 16.3801 19.3203 16.3255 18.5159ZM15.1655 22.1225C15.1321 22.4116 15.0824 22.6928 15.0096 22.9628L15.009 22.9643L15.0084 22.9667C14.9022 23.3716 14.7236 23.7466 14.4742 24.0402L15.3985 24.8258C15.7892 24.3663 16.037 23.8254 16.1811 23.2782L16.1817 23.2764C16.2727 22.9379 16.3318 22.5969 16.3707 22.2602L15.1655 22.1225ZM4.92255 23.3049L4.37776 24.389C5.13003 24.7673 5.90808 25.08 6.69159 25.3506L7.08744 24.2037C6.34275 23.9468 5.61566 23.6531 4.92255 23.3049ZM8.20947 24.5525L7.88672 25.7222C8.68934 25.9439 9.51441 26.1201 10.3577 26.2151L10.493 25.0093C9.72826 24.9235 8.96568 24.7615 8.20947 24.5525ZM13.7122 24.6381C13.108 24.9475 12.3785 25.0618 11.6283 25.0709L11.6435 26.2843C12.5031 26.2739 13.4222 26.1496 14.2649 25.7179L13.7122 24.6381Z" fill="white"/>
</g>
<defs>
<clipPath id="clip0_2200_6059">
<rect width="30.3333" height="30.3333" fill="white" transform="translate(0.833008 0.833374)"/>
</clipPath>
</defs>
</svg>
