<svg width="30" height="22" viewBox="0 0 30 22" fill="none" xmlns="http://www.w3.org/2000/svg">
<path d="M1.66699 8.33329C1.66699 7.62605 1.94794 6.94777 2.44804 6.44767C2.94814 5.94758 3.62641 5.66663 4.33366 5.66663H25.667C26.3742 5.66663 27.0525 5.94758 27.5526 6.44767C28.0527 6.94777 28.3337 7.62605 28.3337 8.33329V17.6666C28.3337 18.3739 28.0527 19.0521 27.5526 19.5522C27.0525 20.0523 26.3742 20.3333 25.667 20.3333H20.5097C20.0492 20.3333 19.5965 20.2141 19.1958 19.9872C18.7951 19.7603 18.4599 19.4335 18.223 19.0386L16.143 15.572C16.0245 15.3748 15.8569 15.2117 15.6567 15.0985C15.4565 14.9852 15.2304 14.9257 15.0003 14.9257C14.7703 14.9257 14.5442 14.9852 14.3439 15.0985C14.1437 15.2117 13.9762 15.3748 13.8577 15.572L11.7777 19.0386C11.5407 19.4335 11.2056 19.7603 10.8049 19.9872C10.4041 20.2141 9.95149 20.3333 9.49099 20.3333H4.33366C3.62641 20.3333 2.94814 20.0523 2.44804 19.5522C1.94794 19.0521 1.66699 18.3739 1.66699 17.6666V8.33329ZM4.08433 4.04129C4.57124 3.31101 5.23087 2.71219 6.00469 2.29796C6.77851 1.88372 7.6426 1.66686 8.52032 1.66663H21.4777C22.3556 1.66664 23.22 1.88339 23.994 2.29764C24.7681 2.71189 25.428 3.31083 25.915 4.04129L27.0003 5.66663H3.00033L4.08433 4.04129Z" stroke="#F5F7FF" stroke-width="2" stroke-linecap="round" stroke-linejoin="round"/>
</svg>
