<svg width="26" height="20" viewBox="0 0 26 20" fill="none" xmlns="http://www.w3.org/2000/svg">
<path d="M25.2019 0.544666C25.4737 2.82444 25.2389 4.85709 24.4605 6.98241C22.9406 11.1404 19.5426 14.421 15.1745 15.9471C14.5011 16.1818 13.1481 16.534 12.4438 16.6514L11.9989 16.7255L11.9804 18.1095L11.9618 19.4934L11.7333 19.7158C11.5417 19.9135 11.4552 19.9506 11.1772 19.9691L10.8498 20L5.56735 16.9479C1.3476 14.5075 0.260225 13.8526 0.149017 13.692C-0.048687 13.4016 -0.048687 12.8579 0.142838 12.5737C0.254047 12.4193 1.44027 11.7088 5.53028 9.35486C8.41553 7.69291 10.8683 6.32134 10.9795 6.29662C11.3317 6.22866 11.6962 6.41401 11.9062 6.76617C11.9371 6.8156 11.9742 7.47049 11.9927 8.21806L12.0236 9.5711L12.4252 9.66377C12.7156 9.73174 13.216 9.75645 14.2169 9.75645C15.5267 9.75645 15.6503 9.75027 16.3484 9.58346C20.3766 8.63818 23.5399 5.54905 24.7508 1.38491C24.8682 0.983322 24.9794 0.513775 25.0041 0.340782C25.0289 0.167791 25.0659 0.0133362 25.0906 0.00097847C25.1154 -0.0175552 25.1648 0.229574 25.2019 0.544666Z" fill="white"/>
</svg>
