<svg width="30" height="31" viewBox="0 0 30 31" fill="none" xmlns="http://www.w3.org/2000/svg">
<path d="M7.27419 23.2248L17.8983 18.4241L22.699 7.80005L12.0749 12.6008L7.27419 23.2248ZM14.9986 16.9427C14.59 16.9427 14.2474 16.8045 13.971 16.528C13.6946 16.2516 13.5564 15.9091 13.5564 15.5004C13.5564 15.0918 13.6946 14.7492 13.971 14.4728C14.2474 14.1964 14.59 14.0582 14.9986 14.0582C15.4072 14.0582 15.7498 14.1964 16.0262 14.4728C16.3026 14.7492 16.4409 15.0918 16.4409 15.5004C16.4409 15.9091 16.3026 16.2516 16.0262 16.528C15.7498 16.8045 15.4072 16.9427 14.9986 16.9427ZM15.0005 30.4936C12.9296 30.4936 10.9828 30.102 9.16033 29.3188C7.33783 28.5355 5.74799 27.4654 4.39083 26.1082C3.03367 24.751 1.96348 23.1618 1.18027 21.3406C0.397026 19.5193 0.0054059 17.5732 0.0054059 15.5023C0.0054059 13.4154 0.397026 11.4606 1.18027 9.63813C1.96348 7.81562 3.03296 6.22955 4.3887 4.87992C5.74445 3.5303 7.33328 2.46184 9.15521 1.67454C10.9771 0.887263 12.9239 0.493625 14.9956 0.493625C17.0833 0.493625 19.0389 0.886914 20.8625 1.6735C22.6861 2.46008 24.2724 3.52759 25.6213 4.87602C26.9703 6.22443 28.0382 7.81007 28.8251 9.63293C29.612 11.4558 30.0054 13.4117 30.0054 15.5004C30.0054 17.5726 29.6118 19.5199 28.8245 21.3422C28.0372 23.1646 26.9687 24.7538 25.6191 26.1099C24.2695 27.4659 22.684 28.5355 20.8628 29.3188C19.0415 30.102 17.0874 30.4936 15.0005 30.4936ZM14.9986 27.3154C18.2935 27.3154 21.0864 26.1688 23.3773 23.8756C25.6682 21.5823 26.8136 18.7906 26.8136 15.5004C26.8136 12.2055 25.6682 9.41263 23.3773 7.12175C21.0864 4.83088 18.2913 3.68544 14.9918 3.68544C11.7084 3.68544 8.91953 4.83088 6.62517 7.12175C4.33081 9.41263 3.18363 12.2078 3.18363 15.5072C3.18363 18.7906 4.33023 21.5795 6.62344 23.8739C8.91665 26.1682 11.7084 27.3154 14.9986 27.3154Z" fill="white"/>
</svg>
