<svg width="26" height="31" viewBox="0 0 26 31" fill="none" xmlns="http://www.w3.org/2000/svg">
<path d="M8.84608 24.9999C8.0042 24.9999 7.2916 24.7083 6.70829 24.1249C6.12496 23.5416 5.83329 22.829 5.83329 21.9871V3.01284C5.83329 2.17095 6.12496 1.45833 6.70829 0.875C7.2916 0.291667 8.0042 0 8.84608 0H22.8204C23.6622 0 24.3748 0.291667 24.9582 0.875C25.5415 1.45833 25.8332 2.17095 25.8332 3.01284V21.9871C25.8332 22.829 25.5415 23.5416 24.9582 24.1249C24.3748 24.7083 23.6622 24.9999 22.8204 24.9999H8.84608ZM8.84608 22.5H22.8204C22.9486 22.5 23.0661 22.4465 23.173 22.3397C23.2798 22.2328 23.3332 22.1153 23.3332 21.9871V3.01284C23.3332 2.88461 23.2798 2.76707 23.173 2.66021C23.0661 2.55338 22.9486 2.49996 22.8204 2.49996H8.84608C8.71786 2.49996 8.60033 2.55338 8.4935 2.66021C8.38664 2.76707 8.33321 2.88461 8.33321 3.01284V21.9871C8.33321 22.1153 8.38664 22.2328 8.4935 22.3397C8.60033 22.4465 8.71786 22.5 8.84608 22.5ZM3.01279 30.8332C2.17093 30.8332 1.45833 30.5415 0.875 29.9582C0.291667 29.3748 0 28.6622 0 27.8204V6.34617H2.49996V27.8204C2.49996 27.9486 2.55338 28.0661 2.66021 28.173C2.76707 28.2798 2.8846 28.3333 3.01279 28.3333H19.487V30.8332H3.01279Z" fill="white"/>
</svg>
