<svg width="50" height="50" viewBox="0 0 50 50" fill="none" xmlns="http://www.w3.org/2000/svg">
<path d="M11.996 24.274H16.868V25.772H11.996V24.274ZM12.136 28.474H17.666V30H10.316V20.2H17.47V21.726H12.136V28.474ZM19.6949 30V20.2H21.1929L27.3389 27.746H26.5969V20.2H28.4029V30H26.9049L20.7589 22.454H21.5009V30H19.6949ZM35.6069 30.14C34.8416 30.14 34.1369 30.0187 33.4929 29.776C32.8582 29.524 32.3029 29.174 31.8269 28.726C31.3509 28.2687 30.9822 27.732 30.7209 27.116C30.4596 26.5 30.3289 25.828 30.3289 25.1C30.3289 24.372 30.4596 23.7 30.7209 23.084C30.9822 22.468 31.3509 21.936 31.8269 21.488C32.3122 21.0307 32.8769 20.6807 33.5209 20.438C34.1649 20.186 34.8696 20.06 35.6349 20.06C36.4656 20.06 37.2122 20.1953 37.8749 20.466C38.5469 20.7367 39.1116 21.1333 39.5689 21.656L38.4209 22.776C38.0382 22.3933 37.6229 22.1133 37.1749 21.936C36.7362 21.7493 36.2509 21.656 35.7189 21.656C35.2056 21.656 34.7296 21.74 34.2909 21.908C33.8522 22.076 33.4742 22.314 33.1569 22.622C32.8396 22.93 32.5922 23.294 32.4149 23.714C32.2469 24.134 32.1629 24.596 32.1629 25.1C32.1629 25.5947 32.2469 26.052 32.4149 26.472C32.5922 26.892 32.8396 27.2607 33.1569 27.578C33.4742 27.886 33.8476 28.124 34.2769 28.292C34.7062 28.46 35.1822 28.544 35.7049 28.544C36.1902 28.544 36.6569 28.4693 37.1049 28.32C37.5622 28.1613 37.9962 27.9 38.4069 27.536L39.4429 28.894C38.9296 29.3047 38.3322 29.6173 37.6509 29.832C36.9789 30.0373 36.2976 30.14 35.6069 30.14ZM37.7209 28.656V24.988H39.4429V28.894L37.7209 28.656Z" fill="white"/>
<rect x="0.75" y="0.75" width="48.5" height="48.5" rx="24.25" stroke="white" stroke-width="1.5"/>
</svg>
