<svg width="40" height="40" viewBox="0 0 40 40" fill="none" xmlns="http://www.w3.org/2000/svg">
<path fill-rule="evenodd" clip-rule="evenodd" d="M20 0C8.95431 0 0 8.95431 0 20C0 31.0457 8.95431 40 20 40C31.0457 40 40 31.0457 40 20C40 8.95431 31.0457 0 20 0ZM11.4289 23.8096V28.5715H16.1908V26.6667H13.3337V23.8096H11.4289ZM23.8099 26.6667V28.5715H28.5718V23.8096H26.667V26.6667H23.8099ZM11.4289 11.4286V16.1905H13.3337V13.3334H16.1908V11.4286H11.4289ZM26.667 13.3334V16.1905H28.5718V11.4286H23.8099V13.3334H26.667Z" fill="white"/>
</svg>
