<svg width="30" height="30" viewBox="0 0 30 30" fill="none" xmlns="http://www.w3.org/2000/svg">
<g clip-path="url(#clip0_163_474)">
<path d="M5.50783 0.0644436C4.99806 0.140615 4.44728 0.410147 4.20119 0.720694C3.85548 1.14257 3.79103 1.33007 3.76173 1.91601L3.7383 2.44921L2.584 2.47265C1.4883 2.49022 1.41798 2.49608 1.1133 2.64257C0.679703 2.84179 0.410172 3.08788 0.199234 3.46874L0.0293122 3.77929L0.0117341 11.7715C-0.00584401 20.9004 -0.0468596 20.1094 0.5215 20.6894C0.761734 20.9297 0.943375 21.0527 1.18947 21.1465C1.52345 21.2695 1.58205 21.2695 6.15822 21.2695C11.127 21.2695 11.0332 21.2754 11.1914 20.9824C11.2676 20.8359 11.2676 20.4141 11.1914 20.2734C11.0508 20.0098 11.1035 20.0098 6.25197 19.9805L1.62892 19.9512L1.459 19.7578L1.28908 19.5703V11.9062C1.28908 4.42382 1.29494 4.24218 1.40627 4.06054C1.56447 3.80272 1.79884 3.74999 2.85939 3.74999H3.75002V10.4414V17.1387L3.89064 17.4316C4.13673 17.959 4.49416 18.2871 5.00978 18.457C5.17384 18.5098 5.68361 18.5391 6.709 18.5449C8.49611 18.5566 8.9883 18.6504 10.3535 19.2246C10.6524 19.3535 10.9805 19.4531 11.0918 19.4531C11.3555 19.4531 11.584 19.2715 11.666 18.9844C11.7246 18.7969 11.7188 18.7266 11.625 18.5332C11.4902 18.2637 11.0977 18.0527 10.043 17.7012C8.90627 17.3203 8.16798 17.209 6.63283 17.2031L5.32033 17.1973L5.1797 17.0332L5.03908 16.8691V9.35741C5.03908 2.00976 5.04494 1.83983 5.15627 1.65819C5.32619 1.37108 5.58986 1.32421 6.88478 1.31835C7.72267 1.31835 8.12697 1.34765 8.51369 1.42382C9.97853 1.72265 11.4961 2.44335 12.7324 3.43944L13.125 3.75585V9.20507V14.6601L13.2949 14.8301C13.4414 14.9707 13.5176 15 13.752 15C13.9981 15 14.0684 14.9707 14.2149 14.8184L14.3848 14.6426L14.4024 9.17577L14.4141 3.70897L14.8418 3.38671C16.2129 2.34374 17.4668 1.75194 18.9844 1.42382C19.377 1.34179 19.7285 1.31835 20.625 1.32421C21.8906 1.32421 22.1367 1.37694 22.3477 1.65819C22.4707 1.82226 22.4707 1.86913 22.5 6.39843L22.5293 10.9687L22.6934 11.1094C22.9453 11.3262 23.3613 11.3086 23.5899 11.0683L23.7598 10.8926L23.7774 7.31835L23.7891 3.73827L24.7852 3.76171C25.8926 3.77929 26.0332 3.82616 26.1738 4.2246C26.2266 4.37108 26.2442 5.45507 26.2442 8.29687L26.25 12.1641L26.4141 12.3281C26.6309 12.5273 26.9356 12.5801 27.1758 12.457C27.5567 12.2578 27.5449 12.4336 27.5274 7.95116L27.5098 3.89647L27.3457 3.56835C27.1582 3.18163 26.7656 2.79491 26.3789 2.61913C26.1328 2.5078 25.9805 2.49022 24.9551 2.47265L23.8067 2.44921L23.7774 1.96874C23.7363 1.35351 23.543 0.925772 23.1387 0.56249C22.8047 0.257803 22.5 0.146475 21.8027 0.0527248C21.0527 -0.0468845 19.336 0.0175686 18.6035 0.175772C17.0918 0.498037 15.5508 1.20116 14.2969 2.1328C14.0567 2.31444 13.8106 2.46093 13.752 2.46093C13.6992 2.46093 13.459 2.3203 13.2246 2.15038C11.6543 1.00194 9.95509 0.298819 8.18556 0.0585842C7.64064 -0.0117283 6.04689 -0.00586891 5.50783 0.0644436Z" fill="white"/>
<path d="M20.9296 13.7695C17.3495 14.2207 14.5253 16.875 13.8456 20.4199C13.6933 21.2109 13.7109 22.6934 13.8749 23.4785C14.2382 25.1836 14.9941 26.5488 16.248 27.7559C17.4198 28.8926 18.9374 29.6543 20.5194 29.9121C21.2284 30.0234 22.5702 30.0234 23.2382 29.9121C26.6484 29.3262 29.3261 26.6484 29.912 23.2383C30.0234 22.5703 30.0234 21.2285 29.912 20.5195C29.6542 18.9375 28.8925 17.4199 27.7558 16.248C26.5429 14.9941 25.1542 14.2266 23.4843 13.8867C22.7987 13.7461 21.5683 13.6934 20.9296 13.7695ZM22.9159 15.1172C25.3652 15.4688 27.5448 17.3145 28.3534 19.7227C29.6777 23.6777 27.1405 27.8965 23.0038 28.623C20.1034 29.127 17.121 27.6035 15.7675 24.9258C15.2226 23.8418 15.0292 22.9277 15.0761 21.6211C15.1171 20.3496 15.3808 19.4297 16.0019 18.3867C17.4316 15.9844 20.1093 14.7188 22.9159 15.1172Z" fill="white"/>
<path d="M21.1055 16.3125C19.7695 16.6406 18.75 17.9062 18.75 19.248C18.75 19.6289 18.7617 19.6816 18.9141 19.8281C19.1309 20.0273 19.4355 20.0801 19.6758 19.957C19.9102 19.834 20.0156 19.6289 20.0566 19.2012C20.1211 18.5508 20.4785 18.0352 21.082 17.7422C21.8086 17.3848 22.5938 17.5137 23.1621 18.0937C23.6484 18.5859 23.8242 19.2246 23.6426 19.834C23.5078 20.2969 23.3438 20.5312 22.8105 20.9766C21.9668 21.6914 21.4863 22.4414 21.3047 23.332C21.082 24.4277 21.2754 25.0195 21.8555 25.0195C22.1133 25.0195 22.4297 24.832 22.4648 24.6562C22.4824 24.5801 22.5176 24.2695 22.5527 23.959C22.6465 23.0332 22.7812 22.8223 24.0703 21.6152C25.0605 20.6895 25.3008 19.248 24.6855 17.9414C24.4805 17.4961 23.7539 16.7695 23.3086 16.5645C22.6172 16.2363 21.8027 16.1484 21.1055 16.3125Z" fill="white"/>
<path d="M21.422 26.414C20.8243 27.0468 21.7032 27.9257 22.336 27.328C22.4708 27.1933 22.5001 27.1171 22.5001 26.8769C22.5001 26.6425 22.4708 26.5663 22.3302 26.4198C22.1837 26.2792 22.1075 26.2499 21.8731 26.2499C21.6329 26.2499 21.5567 26.2792 21.422 26.414Z" fill="white"/>
</g>
<defs>
<clipPath id="clip0_163_474">
<rect width="30" height="30" fill="white"/>
</clipPath>
</defs>
</svg>
