<svg width="30" height="30" viewBox="0 0 30 30" fill="none" xmlns="http://www.w3.org/2000/svg">
<path d="M15 21.35C16.7917 21.35 18.3229 20.7354 19.5938 19.5062C20.8646 18.2771 21.5 16.775 21.5 15C21.5 13.1917 20.8687 11.6563 19.6062 10.3938C18.3437 9.13126 16.8083 8.50001 15 8.50001C13.225 8.50001 11.7229 9.13542 10.4938 10.4062C9.2646 11.6771 8.65001 13.2083 8.65001 15C8.65001 16.775 9.2646 18.2771 10.4938 19.5062C11.7229 20.7354 13.225 21.35 15 21.35ZM15 16.5C14.575 16.5 14.2188 16.3562 13.9313 16.0687C13.6438 15.7812 13.5 15.425 13.5 15C13.5 14.575 13.6438 14.2188 13.9313 13.9313C14.2188 13.6438 14.575 13.5 15 13.5C15.425 13.5 15.7812 13.6438 16.0687 13.9313C16.3562 14.2188 16.5 14.575 16.5 15C16.5 15.425 16.3562 15.7812 16.0687 16.0687C15.7812 16.3562 15.425 16.5 15 16.5ZM15 30C12.9417 30 11 29.6062 9.17501 28.8187C7.35001 28.0312 5.75834 26.9583 4.39999 25.6C3.04166 24.2417 1.96875 22.65 1.18125 20.825C0.39375 19 0 17.0583 0 15C0 12.925 0.39375 10.975 1.18125 9.15C1.96875 7.325 3.04166 5.7375 4.39999 4.3875C5.75834 3.0375 7.35001 1.96875 9.17501 1.18125C11 0.39375 12.9417 0 15 0C17.075 0 19.025 0.39375 20.85 1.18125C22.675 1.96875 24.2625 3.0375 25.6125 4.3875C26.9625 5.7375 28.0312 7.325 28.8187 9.15C29.6062 10.975 30 12.925 30 15C30 17.0583 29.6062 19 28.8187 20.825C28.0312 22.65 26.9625 24.2417 25.6125 25.6C24.2625 26.9583 22.675 28.0312 20.85 28.8187C19.025 29.6062 17.075 30 15 30ZM15 27.5C18.4833 27.5 21.4375 26.2834 23.8625 23.85C26.2875 21.4167 27.5 18.4667 27.5 15C27.5 11.5167 26.2875 8.5625 23.8625 6.13748C21.4375 3.71248 18.4833 2.49998 15 2.49998C11.5333 2.49998 8.58332 3.71248 6.15 6.13748C3.71665 8.5625 2.49997 11.5167 2.49997 15C2.49997 18.4667 3.71665 21.4167 6.15 23.85C8.58332 26.2834 11.5333 27.5 15 27.5Z" fill="#00FFF0"/>
</svg>
