<svg width="37" height="31" viewBox="0 0 37 31" fill="none" xmlns="http://www.w3.org/2000/svg">
<g clip-path="url(#clip0_399_39249)">
<path d="M11.9921 0.393618C11.4386 0.611012 10.8701 1.18073 10.6607 1.75045C10.541 2.0653 10.4961 2.35016 10.4961 2.81493V3.44463L17.6244 3.46712L24.7453 3.4896L25.2913 3.69201C25.5905 3.79695 26.0019 3.99186 26.2038 4.12679C26.9817 4.62905 27.6699 5.58858 27.9317 6.52562C28.0065 6.78049 28.0364 8.72954 28.0514 14.5467L28.0813 22.2304L29.7792 23.9396C30.7142 24.8841 31.5669 25.7012 31.6791 25.7612C32.0157 25.9336 32.3747 25.8961 32.6515 25.6488L32.8983 25.4314L32.9208 23.2574L32.9432 21.0835L33.6314 21.0535C34.1998 21.031 34.4018 20.986 34.7533 20.8211C35.2695 20.5663 35.7257 20.064 35.9277 19.5243C36.0773 19.1195 36.0773 18.977 36.0773 10.6486C36.0773 2.32018 36.0773 2.17775 35.9277 1.77294C35.7257 1.23321 35.2695 0.730953 34.7459 0.476078L34.3195 0.26618L23.3615 0.251188L12.4035 0.236195L11.9921 0.393618ZM33.0255 5.92591C33.6089 6.09083 33.7884 6.69803 33.392 7.14032L33.1751 7.3877H31.6642H30.1532L29.9363 7.14032C29.5548 6.71303 29.7194 6.09083 30.2654 5.93341C30.5945 5.83596 32.6889 5.83596 33.0255 5.92591ZM33.1975 9.98892C33.4144 10.0864 33.6089 10.4012 33.6089 10.6486C33.6089 10.896 33.4144 11.2108 33.1975 11.3083C33.0704 11.3682 32.5468 11.3982 31.6642 11.3982C30.2056 11.3982 30.0036 11.3533 29.8241 11.0159C29.6296 10.6336 29.7493 10.1988 30.1009 10.0039C30.3402 9.86898 32.9133 9.86149 33.1975 9.98892ZM33.392 14.1569C33.7884 14.5992 33.6089 15.2064 33.0255 15.3713C32.6665 15.4687 30.6618 15.4687 30.3028 15.3713C29.9587 15.2738 29.7194 14.9815 29.7194 14.6591C29.7194 14.3893 29.9513 14.0444 30.1981 13.9395C30.2804 13.9095 30.991 13.887 31.7614 13.8945L33.1751 13.9095L33.392 14.1569Z" fill="white"/>
<path d="M2.41785 5.19122C1.86434 5.40861 1.29587 5.97833 1.08643 6.54805L0.921875 6.98284V15.4462C0.921875 23.7746 0.921875 23.9171 1.07147 24.3219C1.27343 24.8616 1.7297 25.3639 2.24581 25.6187C2.59737 25.7836 2.79932 25.8286 3.3678 25.8511L4.05594 25.8811L4.07838 28.055L4.10082 30.229L4.34766 30.4464C4.60946 30.6788 4.98345 30.7312 5.28265 30.5813C5.3724 30.5363 6.48691 29.4568 7.76596 28.1825L10.0847 25.8661L17.415 25.8511L24.7453 25.8286L25.1716 25.6187C25.6952 25.3639 26.1515 24.8616 26.3535 24.3219C26.5031 23.9171 26.5031 23.7746 26.5031 15.4462C26.5031 7.11777 26.5031 6.97534 26.3535 6.57054C26.1515 6.0308 25.6952 5.52855 25.1716 5.27367L24.7453 5.06378L13.7873 5.04878L2.82924 5.03379L2.41785 5.19122ZM14.2585 11.773C14.5427 12.0878 14.5353 12.4627 14.2435 12.755C13.5928 13.3997 12.5606 12.5301 13.1216 11.818C13.4432 11.4132 13.9069 11.3907 14.2585 11.773ZM14.2361 14.1343C14.4231 14.3218 14.4231 14.3292 14.4605 16.1059C14.4979 17.86 14.4979 17.8825 14.6624 17.905C14.8793 17.935 15.186 18.2573 15.2458 18.5197C15.3057 18.8046 15.1187 19.1569 14.8195 19.3143C14.6475 19.4043 14.438 19.4268 13.9967 19.4043C13.4357 19.3818 13.3908 19.3668 13.1814 19.1344L12.9645 18.8945V16.6531C12.9645 14.4792 12.972 14.4117 13.1216 14.2168C13.4282 13.827 13.892 13.797 14.2361 14.1343Z" fill="white"/>
</g>
<defs>
<clipPath id="clip0_399_39249">
<rect width="36.509" height="30.8922" fill="white" transform="translate(0.245117)"/>
</clipPath>
</defs>
</svg>
