<svg width="32" height="31" viewBox="0 0 32 31" fill="none" xmlns="http://www.w3.org/2000/svg">
<g clip-path="url(#clip0_182_12687)">
<path d="M2.33367 0.121054C1.52274 0.411535 0.899414 1.04092 0.614983 1.86395C0.506052 2.18469 0.5 2.51754 0.5 12.7692C0.5 23.0208 0.506052 23.3537 0.614983 23.6744C0.899414 24.5095 1.52879 25.1389 2.35788 25.4233C2.68468 25.5323 2.92674 25.5383 10.1525 25.5383H17.6022L17.7535 25.3447C17.9956 25.0239 18.044 24.915 18.05 24.7092C18.05 24.443 15.351 2.59621 15.2602 2.17864C15.0544 1.19221 14.3101 0.381277 13.3478 0.0907936C13.0997 0.0121212 12.2464 1.71661e-05 7.85285 0.00606918C2.93885 0.00606918 2.63021 0.0181732 2.33367 0.121054ZM10.0315 6.62061C10.2433 6.7598 10.3462 6.87479 10.4309 7.08055C10.5338 7.31656 12.3009 16.2187 12.3009 16.4849C12.3009 16.7694 12.1133 17.0962 11.8773 17.2172C11.4597 17.429 10.8727 17.2596 10.6972 16.8722C10.6427 16.7633 10.4733 16.019 10.3159 15.2201L10.0254 13.7677H8.7001H7.37477L7.08428 15.2201C6.92694 16.019 6.75749 16.7633 6.70303 16.8722C6.52753 17.2596 5.94051 17.429 5.52294 17.2172C5.28692 17.0962 5.09932 16.7694 5.09932 16.4849C5.09932 16.2368 6.86037 7.34077 6.96325 7.08055C7.04797 6.86873 7.32635 6.60246 7.51396 6.5601C7.59868 6.54194 7.70156 6.51773 7.73182 6.49958C7.76813 6.48748 8.25832 6.48748 8.82113 6.49353C9.72284 6.50563 9.88019 6.51773 10.0315 6.62061Z" fill="white"/>
<path d="M8.45816 8.3637C8.4279 8.46053 7.76221 11.8132 7.76221 11.8737C7.76221 11.904 8.18583 11.9221 8.70023 11.9221C9.41433 11.9221 9.63824 11.904 9.63824 11.8434C9.63219 11.8071 9.47485 10.9962 9.28724 10.0461L8.93624 8.32134L8.71233 8.30318C8.56709 8.29108 8.47631 8.30923 8.45816 8.3637Z" fill="white"/>
<path d="M17.475 5.70084C17.5719 6.28181 19.805 24.3644 19.805 24.5944C19.805 25.018 19.69 25.4719 19.4842 25.8652C19.3571 26.1012 18.5704 27.0514 17.2269 28.5885L15.1572 30.9547L22.2135 30.9729C28.5981 30.985 29.3001 30.9789 29.5785 30.8882C30.4197 30.6158 31.0793 29.9683 31.3698 29.1271C31.4848 28.7943 31.4848 28.534 31.4848 18.2763C31.4848 8.12758 31.4788 7.75238 31.3698 7.43163C31.1943 6.91724 31.0733 6.71753 30.686 6.31812C30.4318 6.05184 30.2079 5.88844 29.8932 5.7432L29.4575 5.53745L23.4481 5.51929L17.4387 5.50719L17.475 5.70084ZM25.5057 12.0854C25.8204 12.273 25.9293 12.5332 25.9656 13.1626L25.9959 13.7254L27.4846 13.7496C28.8462 13.7678 28.9915 13.7799 29.173 13.8888C29.4514 14.0583 29.6088 14.3306 29.6088 14.6514C29.6088 15.1173 29.282 15.4502 28.7615 15.5228L28.4831 15.5591L28.3137 16.0251C27.9143 17.1144 27.3091 18.2098 26.6132 19.0933L26.2803 19.5169L26.5345 19.753C26.6797 19.8801 27.1941 20.2976 27.6783 20.6728C28.1624 21.048 28.5921 21.4293 28.6284 21.514C28.816 21.9195 28.6465 22.4762 28.2834 22.6638C28.0716 22.7728 27.6601 22.7849 27.4786 22.6881C27.3212 22.6033 26.1895 21.7258 25.5602 21.1993C25.306 20.9875 25.0821 20.8181 25.0639 20.8181C25.0458 20.8181 24.8097 21.0057 24.5495 21.2296C23.8657 21.8166 22.8853 22.6033 22.7279 22.682C22.5403 22.7849 22.1288 22.7728 21.917 22.6638C21.5539 22.4762 21.3845 21.9195 21.5721 21.514C21.6084 21.4293 22.0138 21.0601 22.4617 20.697C22.9155 20.34 23.4178 19.9224 23.5752 19.7772L23.8657 19.5169L23.557 19.1236C22.9579 18.3671 22.2257 17.0176 21.8807 16.0372L21.7113 15.5591L21.4329 15.5228C20.9185 15.4502 20.5917 15.1173 20.5917 14.6514C20.5917 14.3306 20.749 14.0583 21.0274 13.8888C21.209 13.7799 21.3542 13.7678 22.6856 13.7496L24.1441 13.7254L24.1743 13.1626C24.2106 12.5393 24.3074 12.3093 24.6221 12.0975C24.8461 11.9523 25.2636 11.9462 25.5057 12.0854Z" fill="white"/>
<path d="M23.5571 15.5773C23.5571 15.6317 23.7689 16.1038 23.9929 16.5516C24.2833 17.1326 25.0035 18.2279 25.0822 18.2037C25.2093 18.1613 25.9476 17.0357 26.2804 16.37C26.4801 15.9706 26.6435 15.6196 26.6435 15.5954C26.6435 15.5712 25.9476 15.553 25.1003 15.553C24.2531 15.553 23.5571 15.5652 23.5571 15.5773Z" fill="white"/>
<path d="M11.0908 27.4325C11.0908 27.4748 11.1332 27.8379 11.1816 28.2313C11.3026 29.1391 11.5326 29.6777 12.0167 30.1618C12.2951 30.4402 12.8277 30.7912 12.87 30.7307C12.8821 30.7186 13.572 29.956 14.4132 29.0301L15.9383 27.3538H13.5115C11.575 27.3538 11.0908 27.372 11.0908 27.4325Z" fill="white"/>
</g>
<defs>
<clipPath id="clip0_182_12687">
<rect width="31" height="31" fill="white" transform="translate(0.5)"/>
</clipPath>
</defs>
</svg>
