<svg width="35" height="35" viewBox="0 0 35 35" fill="none" xmlns="http://www.w3.org/2000/svg">
<path d="M17.6667 14.5833C18.4688 14.5833 19.1554 14.2977 19.7266 13.7266C20.2977 13.1554 20.5833 12.4688 20.5833 11.6667C20.5833 10.8646 20.2977 10.178 19.7266 9.60677C19.1554 9.03559 18.4688 8.75 17.6667 8.75C16.8646 8.75 16.178 9.03559 15.6068 9.60677C15.0356 10.178 14.75 10.8646 14.75 11.6667C14.75 12.4688 15.0356 13.1554 15.6068 13.7266C16.178 14.2977 16.8646 14.5833 17.6667 14.5833ZM17.6667 29.1667C13.7535 25.8368 10.8307 22.7439 8.89844 19.888C6.96615 17.0321 6 14.3889 6 11.9583C6 8.3125 7.17274 5.40799 9.51823 3.24479C11.8637 1.0816 14.5799 0 17.6667 0C20.7535 0 23.4696 1.0816 25.8151 3.24479C28.1606 5.40799 29.3333 8.3125 29.3333 11.9583C29.3333 14.3889 28.3672 17.0321 26.4349 19.888C24.5026 22.7439 21.5799 25.8368 17.6667 29.1667Z" fill="white"/>
</svg>
