<svg width="29" height="30" viewBox="0 0 29 30" fill="none" xmlns="http://www.w3.org/2000/svg">
<path d="M2.49997 27C1.81247 27 1.22394 26.7552 0.734362 26.2656C0.244787 25.7761 0 25.1875 0 24.5V2.49998C0 1.81248 0.244787 1.22394 0.734362 0.734363C1.22394 0.244788 1.81247 0 2.49997 0H21.075L27 5.925V14.525C26.6083 14.325 26.2021 14.1854 25.7812 14.1063C25.3604 14.0271 24.9333 14 24.5 14.025V7.0125L19.9875 2.49998H2.49997V24.5H12.5V27H2.49997ZM15 30V25.3875L23.2875 17.1375C23.5125 16.9125 23.7625 16.75 24.0375 16.65C24.3125 16.55 24.5875 16.5 24.8625 16.5C25.1625 16.5 25.45 16.5563 25.725 16.6688C26 16.7813 26.25 16.95 26.475 17.175L27.8625 18.5625C28.0792 18.7875 28.2396 19.0375 28.3437 19.3125C28.4479 19.5875 28.5 19.8625 28.5 20.1375C28.5 20.4125 28.4458 20.6937 28.3375 20.9812C28.2292 21.2687 28.0632 21.525 27.8397 21.75L19.6125 30H15ZM17.25 27.75H18.675L23.2125 23.175L22.5375 22.4625L21.825 21.7875L17.25 26.325V27.75ZM22.5375 22.4625L21.825 21.7875L23.2125 23.175L22.5375 22.4625ZM4.32499 9.9H17.775V4.32499H4.32499V9.9ZM13.5 22.375C13.7417 22.375 13.975 22.35 14.2 22.3C14.425 22.25 14.6333 22.1667 14.825 22.05L17.25 19.6125C17.3666 19.4125 17.4541 19.2021 17.5125 18.9813C17.5708 18.7604 17.6 18.525 17.6 18.275C17.6 17.1361 17.2019 16.1681 16.4059 15.3708C15.6098 14.5736 14.6431 14.175 13.5059 14.175C12.3686 14.175 11.4 14.5731 10.6 15.3692C9.80001 16.1652 9.40001 17.1319 9.40001 18.2691C9.40001 19.4064 9.79862 20.375 10.5958 21.175C11.3931 21.975 12.3611 22.375 13.5 22.375Z" fill="white"/>
</svg>
