<svg width="30" height="31" viewBox="0 0 30 31" fill="none" xmlns="http://www.w3.org/2000/svg">
<path d="M3.87837 30.9825C2.79125 30.9825 1.87308 30.6079 1.12385 29.8587C0.374615 29.1095 0 28.1913 0 27.1042V2.95251C0 2.10044 0.396651 1.50546 1.18995 1.16757C1.98326 0.829686 2.67372 0.954558 3.26136 1.54219L7.22787 5.5087L4.84796 7.88861L6.08199 9.12264L8.4619 6.74273L13.0454 11.3263L10.6655 13.7062L11.8995 14.9402L14.2795 12.5603L18.863 17.1438L16.4831 19.5237L17.7171 20.7577L20.097 18.3778L24.6805 22.9614L22.3006 25.3413L23.5347 26.5753L25.9146 24.1954L29.4403 27.7212C30.028 28.3088 30.1529 28.9993 29.815 29.7926C29.4771 30.5859 28.8821 30.9825 28.03 30.9825H3.87837ZM5.28869 25.6939H19.9207L5.28869 11.0618V25.6939Z" fill="white"/>
</svg>
