<svg width="30" height="30" viewBox="0 0 30 30" fill="none" xmlns="http://www.w3.org/2000/svg">
<g clip-path="url(#clip0_163_454)">
<path d="M14.1083 0.17832C12.5154 0.722179 11.2094 2.50581 10.2547 5.44733C9.96192 6.33622 9.65738 7.57014 9.46997 8.60522L9.33527 9.35961L8.25181 9.57598C7.06294 9.8216 6.51828 9.9561 5.6808 10.2076C2.74083 11.114 0.767181 12.4766 0.169816 14.0029C-0.0117363 14.4707 -0.0527319 15.3889 0.0878245 15.8684C0.638337 17.769 3.04537 19.3187 6.92824 20.2836C8.11126 20.5701 9.60467 20.8333 10.817 20.9561C12.1581 21.0906 12.082 21.0614 11.7891 21.3187C11.4436 21.6286 11.3499 21.8041 11.3499 22.1491C11.3558 22.6988 11.6954 23.038 12.2342 23.038C12.3865 23.038 12.5798 23.0087 12.6559 22.9678C12.732 22.9269 13.1947 22.5175 13.6749 22.0614L14.5534 21.2251L16.2518 21.1549C17.1889 21.1199 18.1493 21.0672 18.3953 21.0497L18.8404 21.0087L18.6706 21.7982C17.9853 25.0321 16.7438 27.5175 15.549 28.0614C14.6647 28.4649 13.7335 27.7573 12.7555 25.9269C12.4041 25.2719 12.2284 25.1315 11.7716 25.1315C11.2621 25.1315 10.8931 25.5058 10.8931 26.0263C10.8931 26.2427 10.9575 26.4239 11.2035 26.9035C11.7482 27.9503 12.3221 28.7105 12.9487 29.2076C13.6515 29.7631 14.2547 29.9854 15.0512 29.9854C15.9941 29.9854 16.6559 29.6754 17.4875 28.8508C17.7804 28.5585 18.1669 28.0965 18.3484 27.8216C19.3441 26.2777 20.123 24.0906 20.6208 21.3947C20.6793 21.0614 20.7379 20.7807 20.7438 20.769C20.7555 20.7631 21.0776 20.6988 21.4641 20.6286C25.4993 19.9035 28.4802 18.4473 29.552 16.6696C30.1552 15.6696 30.1376 14.4473 29.5168 13.4122C28.9839 12.5292 27.7189 11.5701 26.1728 10.8918C25.3411 10.5292 24.0234 10.1023 23.7189 10.1023C22.9048 10.1023 22.5359 11.0965 23.1449 11.6637C23.2211 11.7397 23.672 11.9269 24.1581 12.0906C26.6179 12.9269 28.1698 14.0848 28.1698 15.0789C28.1698 16.231 26.1728 17.5409 23.1625 18.3713C22.448 18.5701 21.019 18.8859 20.9839 18.8567C20.978 18.845 20.9956 18.6169 21.0307 18.3479C21.1244 17.5351 21.1654 13.7046 21.0893 12.5877C20.9312 10.2017 20.5915 8.1023 20.0761 6.27189C19.9766 5.91516 19.8829 5.59937 19.8711 5.55844C19.8536 5.52335 20.0117 5.55259 20.2342 5.63446C20.855 5.85669 21.1947 5.80405 21.511 5.42978C21.8038 5.07891 21.7628 4.5175 21.4173 4.21341C21.2943 4.10815 20.814 3.89177 20.0703 3.61692L18.9107 3.17832L18.7701 2.90932C18.3016 1.98534 17.306 0.850834 16.6266 0.459021C15.877 0.0262718 14.8814 -0.0848389 14.1083 0.17832ZM15.549 1.96779C15.9063 2.12569 16.4217 2.63446 16.773 3.16663C17.3001 3.9561 17.306 3.7982 16.7555 5.05552C16.3982 5.89177 16.2811 6.22511 16.2811 6.41809C16.2811 6.91516 16.6618 7.29528 17.1596 7.29528C17.5754 7.29528 17.8038 7.14324 18.0205 6.72218C18.1552 6.45902 18.2138 6.38885 18.2372 6.45902C18.6647 7.90347 19.0337 9.93856 19.2211 11.9444C19.3675 13.5 19.2972 18.4298 19.1157 19.0555C19.0805 19.1783 18.1318 19.2719 16.1464 19.3421C14.7643 19.3947 14.6647 19.3947 14.5827 19.2953C13.8096 18.3772 13.0014 17.5 12.8609 17.4298C12.6149 17.3011 12.1405 17.3187 11.9531 17.459C11.6896 17.652 11.5373 17.9327 11.5373 18.2134C11.5373 18.5117 11.6369 18.7339 11.9239 19.0497L12.1288 19.2777L11.9356 19.2544C11.8301 19.2368 11.3616 19.1842 10.8931 19.1315C6.99852 18.7046 3.68958 17.5584 2.37187 16.1842C1.99119 15.7807 1.8155 15.4356 1.8155 15.0731C1.8155 13.7046 4.55049 12.1959 8.48022 11.383C8.78476 11.3245 9.0483 11.2836 9.06587 11.2953C9.07758 11.3128 9.05416 11.7514 9.01902 12.2777C8.97802 12.8041 8.94288 13.8508 8.93703 14.6169C8.93117 15.9327 8.93703 16.0087 9.05416 16.1666C9.11858 16.2544 9.26499 16.3889 9.37041 16.459C9.73937 16.7105 10.3192 16.5877 10.5768 16.2017C10.694 16.0263 10.7057 15.9093 10.7408 14.5935C10.7818 13.2368 10.8463 12.0321 10.9282 11.3245L10.9634 10.997L11.7364 10.921C12.1581 10.8801 13.4817 10.8274 14.6706 10.8099C16.7906 10.7748 16.8433 10.7748 17.019 10.6462C17.5344 10.2777 17.5051 9.54675 16.9605 9.14324C16.8199 9.03213 16.6911 9.01458 15.8829 8.99119C14.858 8.9561 12.4685 9.01458 11.7306 9.09645C11.3675 9.13154 11.2445 9.12569 11.2445 9.07306C11.2445 8.93271 11.4905 7.8216 11.6837 7.0906C12.2225 5.04382 12.9546 3.47072 13.7804 2.58183C14.4129 1.90347 14.9751 1.70464 15.549 1.96779Z" fill="white"/>
</g>
<defs>
<clipPath id="clip0_163_454">
<rect width="30" height="30" fill="white"/>
</clipPath>
</defs>
</svg>
