<svg width="31" height="31" viewBox="0 0 31 31" fill="none" xmlns="http://www.w3.org/2000/svg">
<path d="M19.2352 0.149201L19.0702 0.276134V1.51373V2.74497H18.7402C18.2579 2.74497 17.1599 2.90364 16.4998 3.0623C12.3238 4.07776 9.75973 7.60014 9.56933 12.5886L9.53125 13.585L9.69626 13.75C9.81685 13.8706 9.92474 13.915 10.1088 13.915C10.4325 13.915 10.5784 13.7437 10.7181 13.2106C10.864 12.6521 11.4225 11.5224 11.8351 10.9385C12.4888 10.0182 13.4662 9.1868 14.4816 8.68542C15.5923 8.13961 16.6268 7.89209 18.0738 7.84132L19.0702 7.80324V9.04717V10.2911L19.2352 10.418C19.6224 10.7227 19.5653 10.7608 22.637 8.06979C25.639 5.44864 25.658 5.4296 25.4676 5.06149C25.4232 4.96629 24.1285 3.79217 22.5926 2.45303C19.5653 -0.187169 19.6224 -0.155437 19.2352 0.149201Z" fill="white"/>
<path d="M5.13249 10.6847C2.7652 12.119 0.72793 13.3883 0.61369 13.4962C0.264626 13.8199 0.131347 14.1372 0.125 14.6449C0.125 15.1781 0.309052 15.6033 0.664463 15.8889C1.11507 16.2443 14.5445 24.5457 14.8492 24.6536C15.2554 24.7932 15.7758 24.7932 16.182 24.6536C16.4803 24.5457 29.7828 16.3332 30.3286 15.9143C31.0458 15.3685 31.1156 14.2197 30.4746 13.566C30.2969 13.382 28.9958 12.5569 26.6349 11.1289C23.0998 8.9901 23.0554 8.96472 22.9157 9.07261C22.8396 9.13608 22.2557 9.6438 21.621 10.2023C20.4342 11.2368 20.0344 11.5034 19.6345 11.5034C19.076 11.5034 18.4858 11.1416 18.2446 10.6466C18.1304 10.4117 18.0986 10.2023 18.0669 9.55495L18.0352 8.76162L17.5528 8.7997C15.3886 8.99645 13.5672 10.0119 12.4946 11.6176C12.1328 12.1571 11.7901 12.8869 11.6124 13.5026C11.5172 13.8389 11.3776 14.1626 11.2697 14.2959C10.6414 15.0765 9.35934 14.994 8.82623 14.1436C8.66121 13.8834 8.63583 13.7628 8.61044 13.2741C8.55332 12.0746 8.83257 10.1769 9.27049 8.82509C9.39742 8.44429 9.48628 8.11427 9.46724 8.10157C9.45454 8.08888 7.50613 9.25031 5.13249 10.6847Z" fill="white"/>
<path d="M1.68031 18.8718C1.17258 19.1828 0.652152 19.5446 0.525219 19.6842C-0.0713637 20.3125 -0.00155078 21.4485 0.664845 21.9817C1.11546 22.3371 14.5449 30.6385 14.8496 30.7464C15.2557 30.886 15.7762 30.886 16.1824 30.7464C16.487 30.6385 29.9228 22.3371 30.3671 21.9817C31.0271 21.4549 31.1033 20.3379 30.5194 19.6969C30.2655 19.4113 28.425 18.2689 28.3044 18.3197C28.26 18.3324 25.6833 19.9254 22.5861 21.8547C19.4826 23.7841 16.7726 25.4342 16.5631 25.5231C16.2395 25.6627 16.0872 25.6817 15.516 25.6881C14.9384 25.6881 14.7988 25.6691 14.4688 25.5294C14.2593 25.4406 11.5493 23.7841 8.43946 21.8547C5.32962 19.919 2.74654 18.3324 2.69577 18.3197C2.64499 18.3133 2.18804 18.5545 1.68031 18.8718Z" fill="white"/>
</svg>
