<svg width="31" height="30" viewBox="0 0 31 30" fill="none" xmlns="http://www.w3.org/2000/svg">
<path d="M22.6543 0.0643883C21.2012 0.351498 19.8887 1.36517 19.2031 2.72454C18.8633 3.40423 18.7695 3.82025 18.7402 4.74603C18.7168 5.50189 18.7285 5.65423 18.8516 6.14056L18.9922 6.68548L18.6406 6.90814C17.1113 7.86907 11.0527 11.6015 11.0234 11.6015C11.0059 11.6015 10.7949 11.4433 10.5605 11.2558C9.55859 10.4355 8.57422 10.0781 7.32031 10.0781C5.32227 10.0781 3.55273 11.2558 2.79102 13.0956C2.52734 13.7284 2.43359 14.2148 2.43359 14.9999C2.43359 15.7792 2.52734 16.2714 2.78516 16.8984C3.55859 18.7499 5.30469 19.9159 7.30859 19.9218C8.56836 19.9218 9.55273 19.5644 10.5605 18.7441C10.7949 18.5566 11.0059 18.3984 11.0234 18.3984C11.0527 18.3984 17.1113 22.1308 18.6406 23.0917L18.9922 23.3144L18.8516 23.8593C18.7285 24.3456 18.7168 24.498 18.7402 25.2538C18.7578 25.9218 18.793 26.1913 18.8984 26.5136C19.4141 28.1191 20.6035 29.3085 22.209 29.8242C22.8359 30.0234 24.0781 30.0585 24.7871 29.8886C26.5156 29.4784 27.8926 28.1484 28.4023 26.3906C28.5781 25.7812 28.5898 24.4452 28.4258 23.8476C27.9453 22.1074 26.5859 20.7538 24.8457 20.2968C24.2832 20.1445 22.959 20.1445 22.4141 20.2968C21.6055 20.5195 20.873 20.9179 20.2754 21.4628L19.9766 21.7265L15.998 19.2656C13.8066 17.9062 12.0078 16.7929 11.9961 16.787C11.9902 16.7812 12.043 16.5644 12.1133 16.3124C12.2246 15.9257 12.248 15.7089 12.248 14.9999C12.248 14.2909 12.2246 14.0742 12.1133 13.6874C12.043 13.4355 11.9902 13.2187 11.9961 13.2128C12.0078 13.207 13.8066 12.0937 15.998 10.7343L19.9824 8.26751L20.1875 8.46087C20.7559 8.99993 21.5645 9.45696 22.3379 9.67962C22.9531 9.8554 24.2305 9.86712 24.8457 9.70306C26.3047 9.31634 27.5 8.31439 28.1328 6.94915C28.4082 6.34564 28.5078 5.9179 28.5488 5.15619C28.5723 4.64056 28.5605 4.36517 28.4844 3.98431C28.0918 2.05658 26.6797 0.568295 24.8164 0.117123C24.2832 -0.00592422 23.1641 -0.0352211 22.6543 0.0643883ZM24.6406 2.00384C25.1152 2.17962 25.6309 2.51361 25.9062 2.83587C27.0254 4.12494 26.9551 5.9765 25.748 7.13079C24.5176 8.29681 22.6426 8.26751 21.4473 7.05462C21.0137 6.62103 20.7441 6.1054 20.6152 5.46673C20.4805 4.8222 20.5625 4.22454 20.8672 3.58587C21.2656 2.75384 22.1504 2.05658 23.0293 1.88079C23.4746 1.7929 24.207 1.84564 24.6406 2.00384ZM7.95898 11.9824C9.37695 12.2812 10.4141 13.5527 10.4141 14.9999C10.4141 16.5292 9.26562 17.8417 7.73633 18.0585C6.13086 18.287 4.55469 17.0917 4.29688 15.4511C4.05664 13.8808 5.13477 12.3281 6.71094 11.9882C7.20312 11.8769 7.47266 11.8769 7.95898 11.9824ZM24.5234 22.1484C25.1973 22.3476 25.8066 22.8105 26.2285 23.4609C27.1133 24.8085 26.7148 26.7363 25.3613 27.6327C24.1016 28.4648 22.5312 28.3124 21.4707 27.2519C20.7266 26.5077 20.4102 25.5058 20.6152 24.5331C20.791 23.6777 21.2246 23.0097 21.8867 22.5644C22.7129 22.0136 23.5859 21.8788 24.5234 22.1484Z" fill="white"/>
</svg>
