<svg width="40" height="40" viewBox="0 0 40 40" fill="none" xmlns="http://www.w3.org/2000/svg">
<path fill-rule="evenodd" clip-rule="evenodd" d="M20 0C8.95431 0 0 8.95431 0 20C0 31.0457 8.95431 40 20 40C31.0457 40 40 31.0457 40 20C40 8.95431 31.0457 0 20 0ZM23.3333 31.125V34.5417C26.7778 33.7639 29.5833 32.0208 31.75 29.3125C33.9167 26.6042 35 23.4861 35 19.9583C35 16.4306 33.9167 13.3125 31.75 10.6042C29.5833 7.89583 26.7778 6.15278 23.3333 5.375V8.79167C25.8333 9.51389 27.8472 10.9028 29.375 12.9583C30.9028 15.0139 31.6667 17.3472 31.6667 19.9583C31.6667 22.5694 30.9028 24.9028 29.375 26.9583C27.8472 29.0139 25.8333 30.4028 23.3333 31.125ZM5 15V25H11.6667L20 33.3333V6.66667L11.6667 15H5ZM23.3333 13.25V26.6667C24.6389 26.0556 25.6597 25.1458 26.3958 23.9375C27.1319 22.7292 27.5 21.4167 27.5 20C27.5 18.5556 27.1319 17.2222 26.3958 16C25.6597 14.7778 24.6389 13.8611 23.3333 13.25Z" fill="white"/>
</svg>
