<svg width="35" height="35" viewBox="0 0 35 35" fill="none" xmlns="http://www.w3.org/2000/svg">
<path d="M27.9167 27.2865L19.9323 19.3021L22.9948 16.2396L30.9792 24.224L27.9167 27.2865ZM7.79167 27.2865L4.72917 24.224L14.7917 14.1615L12.3125 11.6823L11.2917 12.7031L9.43229 10.8438V13.8333L8.41146 14.8542L4 10.4427L5.02083 9.42188H8.01042L6.1875 7.59896L11.3646 2.42188C11.8507 1.93576 12.3733 1.58333 12.9323 1.36458C13.4913 1.14583 14.0625 1.03646 14.6458 1.03646C15.2292 1.03646 15.8003 1.14583 16.3594 1.36458C16.9184 1.58333 17.441 1.93576 17.9271 2.42188L14.5729 5.77604L16.3958 7.59896L15.375 8.61979L17.8542 11.099L21.1354 7.81771C21.0382 7.55035 20.9592 7.27083 20.8984 6.97917C20.8377 6.6875 20.8073 6.39583 20.8073 6.10417C20.8073 4.67014 21.2995 3.46094 22.2839 2.47656C23.2682 1.49219 24.4774 1 25.9115 1C26.276 1 26.6224 1.03646 26.9505 1.10938C27.2786 1.18229 27.6128 1.29167 27.9531 1.4375L24.3438 5.04688L26.9688 7.67188L30.5781 4.0625C30.7483 4.40278 30.8637 4.73698 30.9245 5.0651C30.9852 5.39323 31.0156 5.73958 31.0156 6.10417C31.0156 7.53819 30.5234 8.7474 29.5391 9.73177C28.5547 10.7161 27.3455 11.2083 25.9115 11.2083C25.6198 11.2083 25.3281 11.184 25.0365 11.1354C24.7448 11.0868 24.4653 11.0017 24.1979 10.8802L7.79167 27.2865Z" fill="white"/>
</svg>
