<svg width="35" height="35" viewBox="0 0 35 35" fill="none" xmlns="http://www.w3.org/2000/svg">
<path d="M17.5 0C7.83563 0 0 7.83563 0 17.5C0 27.1644 7.83563 35 17.5 35C27.1644 35 35 27.1644 35 17.5C35 7.83563 27.1644 0 17.5 0ZM26.9267 13.9052C26.9354 14.0992 26.9398 14.2917 26.9398 14.4842C26.9398 20.4167 22.4263 27.2533 14.1706 27.2533C11.6346 27.2533 9.27646 26.511 7.29167 25.2365C7.64313 25.2788 8.00042 25.2977 8.36354 25.2977C10.4679 25.2977 12.4017 24.5817 13.9358 23.3756C11.9715 23.3392 10.3133 22.0413 9.74312 20.2592C10.0173 20.3117 10.2988 20.3394 10.5875 20.3394C10.9973 20.3394 11.3954 20.284 11.7702 20.1819C9.71688 19.7706 8.16958 17.9565 8.16958 15.7821C8.16958 15.7631 8.16958 15.7442 8.16958 15.7252C8.77479 16.0621 9.46604 16.2633 10.2025 16.2867C8.99938 15.4831 8.20604 14.1079 8.20604 12.5519C8.20604 11.7279 8.42625 10.9565 8.81271 10.2958C11.0265 13.0113 14.334 14.7992 18.0629 14.9858C17.9871 14.6577 17.9477 14.315 17.9477 13.9635C17.9477 11.4858 19.9573 9.47479 22.435 9.47479C23.7256 9.47479 24.8923 10.0202 25.7104 10.8923C26.7327 10.6896 27.6937 10.3177 28.5615 9.80292C28.226 10.8515 27.5144 11.7294 26.5869 12.2865C27.494 12.1785 28.3588 11.9379 29.1652 11.5806C28.5658 12.4819 27.806 13.2708 26.9267 13.9052Z" fill="white"/>
</svg>
