<svg width="25" height="25" viewBox="0 0 25 25" fill="none" xmlns="http://www.w3.org/2000/svg">
<path d="M15.25 24.4968V21.6781C17.3125 21.0822 18.974 19.9364 20.2344 18.2406C21.4948 16.5447 22.125 14.6197 22.125 12.4656C22.125 10.3114 21.4948 8.38641 20.2344 6.69058C18.974 4.99474 17.3125 3.84891 15.25 3.25308V0.434326C18.0917 1.07599 20.4063 2.51401 22.1938 4.74839C23.9813 6.98276 24.875 9.55516 24.875 12.4656C24.875 15.376 23.9813 17.9484 22.1938 20.1828C20.4063 22.4171 18.0917 23.8552 15.25 24.4968ZM0.125 16.625V8.37495H5.625L12.5 1.49995V23.5L5.625 16.625H0.125ZM15.25 18V6.9312C16.3271 7.43537 17.1693 8.19162 17.7766 9.19995C18.3839 10.2083 18.6875 11.3083 18.6875 12.5C18.6875 13.6687 18.3839 14.7515 17.7766 15.7484C17.1693 16.7453 16.3271 17.4958 15.25 18Z" fill="white"/>
</svg>
