<svg width="35" height="35" viewBox="0 0 35 35" fill="none" xmlns="http://www.w3.org/2000/svg">
<path d="M17.5 0C7.83563 0 0 7.83563 0 17.5C0 20.783 0.922165 23.8438 2.49512 26.4693L0.156657 35L8.86963 32.7128C11.4178 34.1615 14.3595 35 17.5 35C27.1644 35 35 27.1644 35 17.5C35 7.83563 27.1644 0 17.5 0ZM11.51 9.33675C11.7944 9.33675 12.0866 9.33502 12.3389 9.34814C12.651 9.35544 12.9906 9.37829 13.3158 10.0972C13.7023 10.9518 14.5438 13.0957 14.6517 13.313C14.7596 13.5303 14.8361 13.7863 14.6859 14.0706C14.543 14.3623 14.4686 14.5388 14.2586 14.797C14.0413 15.0478 13.8032 15.3593 13.6064 15.5489C13.3891 15.7662 13.1647 16.0045 13.4155 16.4376C13.6664 16.8707 14.5375 18.2906 15.8252 19.4368C17.4804 20.9156 18.8769 21.37 19.3115 21.5873C19.7461 21.8046 19.9978 21.7708 20.2486 21.4791C20.5067 21.1947 21.3327 20.2189 21.6243 19.7843C21.9087 19.3498 22.199 19.425 22.5928 19.5679C22.9924 19.7108 25.1233 20.7605 25.5579 20.9778C25.9924 21.1951 26.2773 21.3026 26.3867 21.4791C26.499 21.6614 26.4991 22.5292 26.1389 23.5413C25.7787 24.5519 24.0099 25.5292 23.2166 25.5977C22.4159 25.6721 21.6687 25.9576 18.0127 24.5182C13.6027 22.7814 10.8215 18.2645 10.6042 17.9728C10.387 17.6884 8.8383 15.6244 8.8383 13.4953C8.8383 11.3588 9.95846 10.3125 10.3507 9.87793C10.7503 9.44335 11.2183 9.33675 11.51 9.33675Z" fill="white"/>
</svg>
